<?xml version="1.0" encoding="utf-8"?>
<!-- Generator: Adobe Illustrator 24.3.0, SVG Export Plug-In . SVG Version: 6.00 Build 0)  -->
<svg version="1.1" id="Capa_1" xmlns="http://www.w3.org/2000/svg" xmlns:xlink="http://www.w3.org/1999/xlink" x="0px" y="0px"
	 viewBox="0 0 512 512" style="enable-background:new 0 0 512 512;" xml:space="preserve">
<style type="text/css">
	.st0{fill:#878787;}
</style>
<g>
	<g>
		<path class="st0" d="M465.9,270.8l-19,11.1c-8,4.7-17.9,4.6-25.8-0.1l-17.7-10.7c-17.4-10.4-39-10.6-56.5-0.3l-18.9,11.1
			c-8,4.7-17.9,4.6-25.8-0.1l-17.7-10.7c-1.8-1.1-3.6-2-5.5-2.9V62.1c0-17.7,14.4-32.1,32.1-32.1s32.1,14.4,32.1,32.1v33.9h30V62.1
			C373.1,27.9,345.3,0,311,0s-62.1,27.9-62.1,62.1v119.3H122.7V62.1c0-17.7,14.4-32.1,32.1-32.1S187,44.4,187,62.1v33.9h30V62.1
			C217,27.9,189.2,0,154.9,0S92.7,27.9,92.7,62.1v218l-2.9,1.7c-8,4.7-17.9,4.6-25.8-0.1l-17.6-10.6l-15.5,25.7l17.6,10.6
			c17.4,10.4,39,10.6,56.5,0.3l18.9-11.1c8-4.7,17.9-4.6,25.9,0.1l17.7,10.7c17.4,10.4,39,10.6,56.5,0.3l18.9-11.1
			c8-4.7,17.9-4.6,25.9,0.1l17.7,10.7c8.8,5.3,18.6,7.9,28.5,7.9c9.7,0,19.3-2.5,28-7.6l18.9-11.1c8-4.7,17.9-4.6,25.9,0.1
			l17.7,10.7c17.4,10.4,39,10.6,56.5,0.3l19-11.1L465.9,270.8z M248.8,263.6c-7.3,0.9-14.5,3.3-21,7.2l-18.9,11.1
			c-8,4.7-17.9,4.6-25.8-0.1l-17.7-10.7c-13-7.8-28.3-9.8-42.6-6.1v-53.5h0h126.1V263.6z"/>
	</g>
</g>
<g>
	<g>
		<path class="st0" d="M465.9,370.9l-19,11.1c-8,4.7-17.9,4.6-25.8-0.1l-17.7-10.7c-17.4-10.4-39-10.6-56.5-0.3L327.9,382
			c-8,4.7-17.9,4.6-25.8-0.1l-17.7-10.7c-17.4-10.4-39-10.6-56.5-0.3L208.9,382c-8,4.7-17.9,4.6-25.8-0.1l-17.7-10.7
			c-17.4-10.4-39-10.6-56.5-0.3L89.9,382c-8,4.7-17.9,4.6-25.8-0.1l-17.6-10.6L30.9,397l17.6,10.6c17.4,10.4,39,10.6,56.5,0.3
			l18.9-11.1c8-4.7,17.9-4.6,25.9,0.1l17.7,10.7c17.4,10.4,39,10.6,56.5,0.3l18.9-11.1c8-4.7,17.9-4.6,25.9,0.1l17.7,10.7
			c8.8,5.3,18.6,7.9,28.5,7.9c9.7,0,19.3-2.5,28-7.6l18.9-11.1c8-4.7,17.9-4.6,25.9,0.1l17.7,10.7c17.4,10.4,39,10.6,56.5,0.3
			l19-11.1L465.9,370.9z"/>
	</g>
</g>
<g>
	<g>
		<path class="st0" d="M465.9,467.4l-19,11.1c-8,4.7-17.9,4.6-25.8-0.1l-17.7-10.7c-17.4-10.4-39-10.6-56.5-0.3l-18.9,11.1
			c-8,4.7-17.9,4.6-25.8-0.1l-17.7-10.7c-17.4-10.4-39-10.6-56.5-0.3l-18.9,11.1c-8,4.7-17.9,4.6-25.8-0.1l-17.7-10.7
			c-17.4-10.4-39-10.6-56.5-0.3l-18.9,11.1c-8,4.7-17.9,4.6-25.8-0.1l-17.6-10.6l-15.5,25.7l17.6,10.6c17.4,10.4,39,10.6,56.5,0.3
			l18.9-11.1c8-4.7,17.9-4.6,25.9,0.1l17.7,10.7c17.4,10.4,39,10.6,56.5,0.3l18.9-11.1c8-4.7,17.9-4.6,25.9,0.1l17.7,10.7
			c8.8,5.3,18.6,7.9,28.5,7.9c9.7,0,19.3-2.5,28-7.6l18.9-11.1c8-4.7,17.9-4.6,25.9,0.1l17.7,10.7c17.4,10.4,39,10.6,56.5,0.3
			l19-11.1L465.9,467.4z"/>
	</g>
</g>
</svg>
