<?xml version="1.0" encoding="utf-8"?>
<!-- Generator: Adobe Illustrator 24.3.0, SVG Export Plug-In . SVG Version: 6.00 Build 0)  -->
<svg version="1.1" id="Capa_1" xmlns="http://www.w3.org/2000/svg" xmlns:xlink="http://www.w3.org/1999/xlink" x="0px" y="0px"
	 viewBox="0 0 512 512" style="enable-background:new 0 0 512 512;" xml:space="preserve">
<style type="text/css">
	.st0{fill:#878787;}
</style>
<g>
	<g>
		<g>
			<path class="st0" d="M256,391c-4.9,0-9.5-2.4-12.3-6.5l-160-232c-3.2-4.6-3.5-10.6-0.9-15.5c2.6-4.9,7.7-8,13.3-8h320
				c5.6,0,10.7,3.1,13.3,8c2.6,4.9,2.2,10.9-0.9,15.5l-160,232C265.5,388.6,260.9,391,256,391z M124.6,159L256,349.6L387.4,159
				L124.6,159z"/>
		</g>
		<g>
			<path class="st0" d="M256,512c-8.3,0-15-6.7-15-15V376c0-8.3,6.7-15,15-15c8.3,0,15,6.7,15,15v121C271,505.3,264.3,512,256,512z"
				/>
		</g>
		<g>
			<path class="st0" d="M368,512H144c-8.3,0-15-6.7-15-15c0-8.3,6.7-15,15-15h224c8.3,0,15,6.7,15,15C383,505.3,376.3,512,368,512z"
				/>
		</g>
		<g>
			<path class="st0" d="M256,287c-2.2,0-4.5-0.5-6.7-1.6c-7.4-3.7-10.4-12.7-6.7-20.1l128-257c3.7-7.4,12.7-10.4,20.1-6.7
				c7.4,3.7,10.4,12.7,6.7,20.1l-128,257C266.8,284,261.5,287,256,287L256,287z"/>
		</g>
		<g>
			<path class="st0" d="M350.5,254c-2.9,0-5.7-0.8-8.3-2.5l-22.5-15c-9.5-6.4-21.8-6.4-31.4,0c-19.6,13.1-45,13.1-64.6,0
				c-9.5-6.3-21.8-6.3-31.4,0l-22.5,15c-6.9,4.6-16.2,2.7-20.8-4.2c-4.6-6.9-2.7-16.2,4.2-20.8l22.5-15c19.6-13.1,45-13.1,64.6,0
				c9.5,6.3,21.8,6.3,31.4,0c19.6-13.1,45-13.1,64.6,0l22.5,15c6.9,4.6,8.8,13.9,4.2,20.8C360.1,251.6,355.3,254,350.5,254
				L350.5,254z"/>
		</g>
	</g>
</g>
</svg>
