<?xml version="1.0" encoding="utf-8"?>
<!-- Generator: Adobe Illustrator 24.3.0, SVG Export Plug-In . SVG Version: 6.00 Build 0)  -->
<svg version="1.1" id="Capa_1" xmlns="http://www.w3.org/2000/svg" xmlns:xlink="http://www.w3.org/1999/xlink" x="0px" y="0px"
	 viewBox="0 0 512 512" style="enable-background:new 0 0 512 512;" xml:space="preserve">
<style type="text/css">
	.st0{fill:#878787;}
</style>
<g>
	<path class="st0" d="M462,95.7c-2.5-3.3-7.2-3.9-10.5-1.3s-3.9,7.2-1.3,10.5c23,29.7,36.3,66.1,37.8,103.4l-100.7-27
		c4.2-26.7,5.9-53.8,4.9-80.7c-0.5-15.6-2-31.2-4.3-46.7c14.1,7,27.4,15.9,39.3,26.4c3.1,2.7,7.8,2.5,10.6-0.6
		c2.7-3.1,2.5-7.8-0.6-10.6c-19.6-17.4-42.5-30.5-67.2-38.8l7.2-20.3c1.4-3.9-0.6-8.2-4.5-9.6C368.7-1,364.4,1.1,363,5l-7.5,21.1
		c-84.9-21.1-173.9,17.5-216.9,94.3c-0.6,1.1-1.1,2.4-1,4.3l2.7,39.1c0.5,7.5,5.7,13.8,12.9,15.7l74.1,19.8
		c7.1,1.9,14.9-0.9,19.1-7.1l9.6-14.3l1.2,17.2c0.5,7.5,5.7,13.8,12.9,15.7l29.8,8l-41.9,156.5l-70.2-0.2h0c-4.1,0-7.5,3.3-7.5,7.5
		c0,4.1,3.3,7.5,7.5,7.5l146.9,0.4h0.1c7.3,0,14.5-3,19.6-8.3l52.9-53.9c10.9-11.1,27.5-15.1,42.3-10.2l16.1,5.4L365.3,424.4
		c-4.2,4.2-10,6.6-16,6.6H59c-0.8-11.4,2.4-22.5,10.6-30.7c6.8-6.8,15.8-10.5,25.4-10.5h0.1l57.5,0.2h0c4.1,0,7.5-3.3,7.5-7.5
		c0-4.1-3.3-7.5-7.5-7.5l-57.5-0.2c-13.7-0.1-26.5,5.2-36.2,14.9c-12.2,12.2-15,28.8-15,45.8c0,5.8,4.7,10.5,10.5,10.5h18L57,480.2
		c-2.5,5.5-2.6,11.5-0.7,16.8H16.4c-4.1,0-7.5,3.4-7.5,7.5s3.4,7.5,7.5,7.5h461.5c4.1,0,7.5-3.4,7.5-7.5s-3.4-7.5-7.5-7.5h-70.4
		c1.9-5.3,1.8-11.3-0.7-16.8L383,427.9l98.3-99c5.4-5.4,3.1-15-4.1-17.4l-23-7.7c-20.2-6.7-42.9-1.3-57.7,13.9l-52.9,53.9
		c-2.3,2.4-5.6,3.8-8.9,3.8h0l-61.2-0.2l40.9-152.7l29.8,8c7.1,1.9,14.9-0.9,19.1-7.1l9.6-14.3l1.2,17.2c0.5,7.5,5.7,13.8,12.9,15.7
		l74.1,19.8c7.1,1.9,14.9-0.9,19.1-7.1l21.9-32.5c0.6-1,1.3-2.4,1.3-4.2C503.7,174.1,489.1,130.6,462,95.7L462,95.7z M77.5,497
		c-1.1,0-2.1-0.2-3.1-0.7c-3.8-1.7-5.4-6.2-3.7-9.9L89,446.1h16.5l-21.2,46.5C83.1,495.3,80.4,497,77.5,497L77.5,497z M225.3,497
		H98.8l23.2-50.9h117L225.3,497z M240.8,497l13.6-50.9h87.4L365,497H240.8z M393.1,486.4c1.7,3.8,0,8.2-3.7,9.9
		c-1,0.4-2,0.7-3.1,0.7c-2.9,0-5.6-1.7-6.8-4.4l-21.6-47.5c4.9-1.2,9.6-3.3,13.6-6.3L393.1,486.4z M233.8,183.8
		c-0.6,0.9-1.7,1.3-2.7,1L157.1,165c-1-0.3-1.8-1.2-1.8-2.2l-1.9-28.6l96.6,25.9L233.8,183.8z M257.2,146.5l-100.6-27
		C192.9,62,258.2,30.2,324.7,36.1c-11.7,12.7-22.4,26.3-31.9,40.6C278.3,98.5,266.3,121.9,257.2,146.5L257.2,146.5z M350.7,215.2
		c-0.6,0.9-1.7,1.3-2.7,1l-74.1-19.8c-1-0.3-1.8-1.2-1.8-2.2l-1.9-28.6l96.6,25.9L350.7,215.2z M372.7,177.4l-100.9-27
		c8.7-23,19.9-44.9,33.5-65.3c11-16.5,23.7-32.1,37.7-46.4c9.7,1.9,19.4,4.6,28.7,8.1c3.1,17.9,5,36.2,5.6,54.3
		C378.1,126.6,376.6,152.2,372.7,177.4L372.7,177.4z M467.5,246.5c-0.6,0.9-1.7,1.3-2.7,1l-74.1-19.8c-1-0.3-1.8-1.2-1.8-2.2
		l-1.9-28.6l96.6,25.9L467.5,246.5z"/>
</g>
</svg>
