<?xml version="1.0" encoding="utf-8"?>
<!-- Generator: Adobe Illustrator 24.3.0, SVG Export Plug-In . SVG Version: 6.00 Build 0)  -->
<svg version="1.1" id="Capa_1" xmlns="http://www.w3.org/2000/svg" xmlns:xlink="http://www.w3.org/1999/xlink" x="0px" y="0px"
	 viewBox="0 0 512 512" style="enable-background:new 0 0 512 512;" xml:space="preserve">
<style type="text/css">
	.st0{fill:#878787;}
</style>
<g>
	<path class="st0" d="M491,112h-24V92c0-15.8-12.9-28.7-28.7-28.7h-22.9c-15.8,0-28.7,12.9-28.7,28.7v82.2h-38.4v-22.1
		c0-16-13-29-29-29c-6.3,0-12.1,2-16.9,5.4c-4.7-9.8-14.7-16.5-26.2-16.5c-10.9,0-20.4,6-25.4,15c-4.9-3.8-11-6-17.7-6
		c-10.1,0-19,5.2-24.2,13c-5.1-4.4-11.7-7-18.9-7c-16,0-29,13-29,29v18.2h-35.8V153c0-4.1-3.4-7.5-7.5-7.5c-4.1,0-7.5,3.4-7.5,7.5
		v174.1c0,7.6-6.1,13.7-13.7,13.7H73.7c-7.6,0-13.7-6.1-13.7-13.7V92c0-7.6,6.1-13.7,13.7-13.7h22.9c7.6,0,13.7,6.1,13.7,13.7v29.1
		c0,4.1,3.4,7.5,7.5,7.5c4.1,0,7.5-3.4,7.5-7.5V92c0-15.8-12.9-28.7-28.7-28.7H73.7C57.9,63.3,45,76.2,45,92v20H21
		c-11.6,0-21,9.4-21,21v153.3c0,11.6,9.4,21,21,21h24v20c0,15.8,12.9,28.7,28.7,28.7h22.9c15.8,0,28.7-12.9,28.7-28.7V245H151v13.7
		c0,7,2.5,13.9,6.9,19.3l23.3,28.3v134.9c0,4.1,3.4,7.5,7.5,7.5s7.5-3.4,7.5-7.5V303.6c0-1.7-0.6-3.4-1.7-4.8l-25-30.4
		c-2.3-2.8-3.5-6.2-3.5-9.8V245l141.7,0.9c4.1,0,7.5-3.4,7.5-7.5c0-4.1-3.4-7.5-7.5-7.5h-34.1c-7,0-12.8-5.7-12.8-12.8
		c0-7,5.7-12.8,12.8-12.8H338c4.4,0,8,3.6,8,8v45.3c0,3.6-1.2,7.1-3.5,9.8l-25,30.4c-1.1,1.3-1.7,3-1.7,4.8v19.8
		c0,4.1,3.4,7.5,7.5,7.5c4.1,0,7.5-3.4,7.5-7.5v-17.1l23.3-28.3c4.5-5.4,6.9-12.3,6.9-19.3V245h25.7v82.2
		c0,15.8,12.9,28.7,28.7,28.7h22.9c15.8,0,28.7-12.9,28.7-28.7v-20h24c11.6,0,21-9.4,21-21V132.9C512,121.4,502.6,112,491,112z
		 M21,292.2c-3.3,0-6-2.7-6-6V132.9c0-3.3,2.7-6,6-6h24v165.2H21z M319.3,138.1c7.7,0,14,6.3,14,14V180c0,4-1.7,7.7-4.6,10.3h-19
		c-2.9-2.6-4.6-6.4-4.6-10.3v-27.9C305.3,144.4,311.6,138.1,319.3,138.1z M262.2,141c0-7.7,6.3-14,14-14s14,6.3,14,14v39
		c0,4-1.7,7.7-4.6,10.3h-12.2c-2.1,0-4.1,0.2-6,0.7c-3.3-2.6-5.3-6.6-5.3-11L262.2,141L262.2,141z M219.2,149.9c0-7.7,6.3-14,14-14
		s14,6.3,14,14V180c0,7.7-6.3,14-14,14s-14-6.3-14-14V149.9z M176.1,156c0-7.7,6.3-14,14-14s14,6.3,14,14V180c0,7.7-6.3,14-14,14
		s-14-6.3-14-14V156z M125.3,189.2h37.3c3.8,11.5,14.7,19.9,27.5,19.9c8.5,0,16.2-3.7,21.5-9.6c5.3,5.9,13,9.6,21.5,9.6
		c6.2,0,11.9-2,16.6-5.3c-2.5,4.2-4,9.1-4,14.3c0,4.3,1,8.3,2.7,11.9H125.3V189.2z M361,230v-16.6c0-9.9-6.3-18.4-15.1-21.6
		c0.4-0.8,0.7-1.7,1-2.6h39.8V230L361,230z M497,286.2c0,3.3-2.7,6-6,6h-24v-21.7c0-4.1-3.4-7.5-7.5-7.5c-4.1,0-7.5,3.4-7.5,7.5
		v56.6c0,7.6-6.1,13.7-13.7,13.7h-22.9c-7.6,0-13.7-6.1-13.7-13.7V92c0-7.6,6.1-13.7,13.7-13.7h22.9c7.6,0,13.7,6.1,13.7,13.7v146.6
		c0,4.1,3.4,7.5,7.5,7.5c4.1,0,7.5-3.4,7.5-7.5V127h24c3.3,0,6,2.7,6,6V286.2z"/>
	<path class="st0" d="M323.3,347.8c-4.1,0-7.5,3.4-7.5,7.5v85.9c0,4.1,3.4,7.5,7.5,7.5c4.1,0,7.5-3.4,7.5-7.5v-85.9
		C330.8,351.2,327.5,347.8,323.3,347.8z"/>
</g>
</svg>
