<?xml version="1.0" encoding="utf-8"?>
<!-- Generator: Adobe Illustrator 24.3.0, SVG Export Plug-In . SVG Version: 6.00 Build 0)  -->
<svg version="1.1" id="Capa_1" xmlns="http://www.w3.org/2000/svg" xmlns:xlink="http://www.w3.org/1999/xlink" x="0px" y="0px"
	 viewBox="0 0 512 512" style="enable-background:new 0 0 512 512;" xml:space="preserve">
<style type="text/css">
	.st0{fill:#878787;}
</style>
<g id="XMLID_1539_">
	<g id="XMLID_649_">
		<path id="XMLID_650_" class="st0" d="M436.4,217.6c1.6,3.9,5.3,6.2,9.2,6.2c1.3,0,2.6-0.2,3.8-0.8l27.3-11.3
			c5.1-2.1,7.5-8,5.4-13.1c-2.1-5.1-8-7.5-13.1-5.4l-27.3,11.3C436.8,206.7,434.3,212.5,436.4,217.6L436.4,217.6z"/>
		<path id="XMLID_675_" class="st0" d="M502,302.1h-92.3c-5.2-80.3-72.1-144-153.7-144s-148.5,63.7-153.7,144H10
			c-5.5,0-10,4.5-10,10s4.5,10,10,10h201c5.5,0,10-4.5,10-10s-4.5-10-10-10h-88.6c5.1-69.2,63.1-124,133.6-124s128.5,54.8,133.6,124
			H301c-5.5,0-10,4.5-10,10s4.5,10,10,10h201c5.5,0,10-4.5,10-10S507.5,302.1,502,302.1L502,302.1z"/>
		<path id="XMLID_676_" class="st0" d="M256,134.2c5.5,0,10-4.5,10-10V29.7c0-5.5-4.5-10-10-10s-10,4.5-10,10v94.4
			C246,129.7,250.5,134.2,256,134.2z"/>
		<path id="XMLID_677_" class="st0" d="M330.7,131.7c1.3,0.5,2.5,0.8,3.8,0.8c3.9,0,7.6-2.3,9.2-6.2l11.3-27.3
			c2.1-5.1-0.3-11-5.4-13.1c-5.1-2.1-11,0.3-13.1,5.4l-11.3,27.3C323.2,123.7,325.6,129.6,330.7,131.7z"/>
		<path id="XMLID_678_" class="st0" d="M388.9,189.2c2.6,0,5.1-1,7.1-2.9l67.7-67.7c3.9-3.9,3.9-10.2,0-14.1
			c-3.9-3.9-10.2-3.9-14.1,0l-67.7,67.7c-3.9,3.9-3.9,10.2,0,14.1C383.8,188.2,386.3,189.2,388.9,189.2L388.9,189.2z"/>
		<path id="XMLID_679_" class="st0" d="M168.2,126.3c1.6,3.9,5.3,6.2,9.2,6.2c1.3,0,2.6-0.2,3.8-0.8c5.1-2.1,7.5-8,5.4-13.1
			l-11.3-27.3c-2.1-5.1-8-7.5-13.1-5.4c-5.1,2.1-7.5,8-5.4,13.1L168.2,126.3z"/>
		<path id="XMLID_680_" class="st0" d="M35.2,231.5l27.3,11.3c1.3,0.5,2.5,0.8,3.8,0.8c3.9,0,7.6-2.3,9.2-6.2
			c2.1-5.1-0.3-11-5.4-13.1L42.8,213c-5.1-2.1-11,0.3-13.1,5.4C27.6,223.5,30.1,229.3,35.2,231.5L35.2,231.5z"/>
		<path id="XMLID_681_" class="st0" d="M116,186.3c2,2,4.5,2.9,7.1,2.9s5.1-1,7.1-2.9c3.9-3.9,3.9-10.2,0-14.1l-67.7-67.7
			c-3.9-3.9-10.2-3.9-14.1,0c-3.9,3.9-3.9,10.2,0,14.1L116,186.3z"/>
		<path id="XMLID_682_" class="st0" d="M424.6,375.7c-7.5,7.5-17.5,11.6-28.1,11.6s-20.6-4.1-28.1-11.6c-23.3-23.3-61.2-23.3-84.4,0
			c-7.5,7.5-17.5,11.6-28.1,11.6s-20.6-4.1-28.1-11.6c-23.3-23.3-61.2-23.3-84.4,0c-7.5,7.5-17.5,11.6-28.1,11.6
			c-10.6,0-20.6-4.1-28.1-11.6c-3.9-3.9-10.2-3.9-14.1,0c-3.9,3.9-3.9,10.2,0,14.1c11.3,11.3,26.3,17.5,42.2,17.5
			s30.9-6.2,42.2-17.5c15.5-15.5,40.7-15.5,56.1,0c11.3,11.3,26.3,17.5,42.2,17.5s30.9-6.2,42.2-17.5c15.5-15.5,40.7-15.5,56.1,0
			c11.3,11.3,26.3,17.5,42.2,17.5s30.9-6.2,42.2-17.5c3.9-3.9,3.9-10.2,0-14.1C434.9,371.8,428.5,371.8,424.6,375.7L424.6,375.7z"/>
		<path id="XMLID_683_" class="st0" d="M354.4,460.7c-7.5,7.5-17.5,11.6-28.1,11.6c-10.6,0-20.6-4.1-28.1-11.6
			c-11.3-11.3-26.3-17.5-42.2-17.5s-30.9,6.2-42.2,17.5c-7.5,7.5-17.5,11.6-28.1,11.6s-20.6-4.1-28.1-11.6c-3.9-3.9-10.2-3.9-14.1,0
			c-3.9,3.9-3.9,10.2,0,14.1c23.3,23.3,61.2,23.3,84.4,0c7.5-7.5,17.5-11.6,28.1-11.6c10.6,0,20.6,4.1,28.1,11.6
			c11.6,11.6,26.9,17.5,42.2,17.5c15.3,0,30.6-5.8,42.2-17.5c3.9-3.9,3.9-10.2,0-14.1C364.6,456.8,358.3,456.8,354.4,460.7
			L354.4,460.7z"/>
		<path id="XMLID_684_" class="st0" d="M263.1,319.2c1.9-1.9,2.9-4.4,2.9-7.1s-1.1-5.2-2.9-7.1c-1.9-1.9-4.4-2.9-7.1-2.9
			c-2.6,0-5.2,1.1-7.1,2.9c-1.9,1.9-2.9,4.4-2.9,7.1s1.1,5.2,2.9,7.1s4.4,2.9,7.1,2.9S261.2,321,263.1,319.2z"/>
	</g>
</g>
</svg>
