<?xml version="1.0" encoding="utf-8"?>
<!-- Generator: Adobe Illustrator 24.3.0, SVG Export Plug-In . SVG Version: 6.00 Build 0)  -->
<svg version="1.1" id="Layer_1" xmlns="http://www.w3.org/2000/svg" xmlns:xlink="http://www.w3.org/1999/xlink" x="0px" y="0px"
	 viewBox="0 0 512 512" style="enable-background:new 0 0 512 512;" xml:space="preserve">
<style type="text/css">
	.st0{fill:#878787;}
</style>
<path class="st0" d="M87.6,226.9c21.2,0,40.4-10.5,51.9-27.5c5.6,5.3,13,8.7,21.3,9.1c15.4,32.7,48,53.6,84.5,53.6h22.9
	c36.5,0,69.1-20.9,84.5-53.6c8.1-0.5,15.4-3.9,20.9-9.3c11.5,17.2,30.7,27.7,52.1,27.7c6.8,0,12.3-5.5,12.3-12.3v-84.4
	c0-28.7-23.3-52.1-52.1-52.1h-18C364.8,71,357.7,66,349.4,66h-3.6c-3.6,0-7.2,1-10.2,2.8c-17-17.7-40.9-28.8-67.4-28.8h-22.9
	c-26.5,0-50.5,11.1-67.5,28.9c-3.1-1.9-6.7-2.9-10.4-2.9h-3.6c-8.3,0-15.4,5-18.5,12.2h-18c-28.7,0-52.1,23.4-52.1,52.1v84.4
	C75.3,221.4,80.8,226.9,87.6,226.9z M350.7,193.4c-0.5,0-1.1-0.1-1.8-0.2c-3.5-0.5-6.8,1.4-8.1,4.7c-12,29.8-40.5,49-72.6,49h-22.9
	c-32.1,0-60.6-19.3-72.6-49.1c-1.2-2.9-4-4.8-7-4.8c-0.4,0-0.9,0-1.3,0.1c-0.7,0.1-1.3,0.2-1.9,0.2c-9.9,0-17.9-8.1-17.9-17.9V167
	c0-5.9,4.8-10.8,10.8-10.8h4.2c4.2,0,7.6-3.4,7.6-7.6v-0.9c14.8-18.8,37.6-29.9,61.5-29.9H285c23.9,0,46.7,11.1,61.5,29.9v0.9
	c0,4.2,3.4,7.6,7.6,7.6h1.9c6.8,0,12.4,5.5,12.4,12.4v7.2C368.3,185.5,360.4,193.4,350.7,193.4z M422.8,130.2v81.5
	c-17.6-1-33-11.6-40.4-27.6c0.7-2.6,1.1-5.4,1.1-8.3v-7.2c0-6.1-2-11.7-5.4-16.3c0,0-0.1-14.1-0.3-15.9c-0.4-4.2-4.1-7.2-8.3-6.8
	c-4.2,0.4-7.2,4.1-6.8,8.3c0.1,1.2,0.2,2.5,0.2,3.7v0.3c-0.4-0.1-0.9-0.2-1.3-0.3v-8.2c0-4.9-0.4-9.7-1.1-14.3
	c5.4-3.6,8.9-9.8,8.9-16.6v-9.1h16.4C406.2,93.3,422.8,109.9,422.8,130.2z M345.8,81.1h3.6c2.7,0,4.9,2.2,4.9,4.9v11.1
	c-2.4-5.6-5.3-11-8.7-16C345.7,81.1,345.7,81.1,345.8,81.1z M245.3,55.2h22.9c40.5,0,73.9,30.9,77.9,70.4
	c-16.8-14.5-38.6-22.8-61.1-22.8h-56.4c-22.6,0-44.3,8.3-61.1,22.8C171.4,86.1,204.8,55.2,245.3,55.2z M163.9,81.1h3.6
	c0.2,0,0.3,0,0.4,0c-3.5,5.2-6.5,10.8-9,16.6V86C159,83.3,161.2,81.1,163.9,81.1z M90.5,130.2c0-20.3,16.5-36.9,36.9-36.9h16.4v9.1
	c0,7,3.6,13.2,9.1,16.8c-0.7,4.6-1.1,9.3-1.1,14.2v7.8c-0.5,0.1-1,0.2-1.6,0.3c0-1.2,0.1-2.4,0.2-3.6c0.4-4.2-2.6-7.9-6.8-8.3
	s-7.9,2.6-8.3,6.8c-0.2,1.7-0.3,14.1-0.3,14.1c-3.7,4.5-5.9,10.2-5.9,16.4v8.5c0,3.2,0.5,6.3,1.3,9.2c-7.4,15.7-22.7,26-40.1,27.1
	V130.2z"/>
<path class="st0" d="M231.5,160.2c0,6.2-5,11.3-11.3,11.3c-6.2,0-11.3-5-11.3-11.3c0-6.2,5.1-11.3,11.3-11.3
	C226.5,149,231.5,154,231.5,160.2z"/>
<path class="st0" d="M304.6,160.2c0,6.2-5.1,11.3-11.3,11.3c-6.2,0-11.3-5-11.3-11.3c0-6.2,5-11.3,11.3-11.3
	C299.5,149,304.6,154,304.6,160.2z"/>
<path class="st0" d="M290.8,180h-68.1c-3.2,0-6.3,1.4-8.4,3.8c-2.2,2.4-3.2,5.6-2.8,8.8c2.5,23.1,22,40.6,45.3,40.6
	c23.3,0,42.8-17.4,45.3-40.6c0.3-3.2-0.7-6.4-2.8-8.8C297.1,181.3,294,180,290.8,180z M256.8,217.9c-14.1,0-26.1-9.6-29.5-22.8h58.9
	C282.9,208.4,270.9,217.9,256.8,217.9z"/>
<path class="st0" d="M490.2,352.3v-8.2c0-51.5-41.9-93.4-93.4-93.4h-22.9c-51.5,0-93.4,41.9-93.4,93.4v7.8
	c-12.7,1.7-22.6,12.6-22.6,25.7v8.5c0,17.7,14,32.2,31.5,33.1c15.4,32.7,48,53.6,84.5,53.6h22.9c36.5,0,69.1-20.9,84.5-53.6
	c17.1-1,30.8-15.3,30.8-32.7v-7.2C512,366,502.6,355,490.2,352.3z M373.8,265.9h22.9c40.5,0,73.9,30.9,77.9,70.4
	c-16.8-14.5-38.6-22.8-61.1-22.8h-56.4c-22.6,0-44.3,8.3-61.1,22.8C299.9,296.8,333.3,265.9,373.8,265.9z M496.8,386.5
	c0,9.7-7.9,17.6-17.6,17.6c-0.5,0-1.1,0-1.8-0.1c-3.5-0.5-6.8,1.4-8.1,4.7c-12,29.8-40.5,49-72.6,49h-22.9
	c-32.1,0-60.6-19.3-72.6-49.1c-1.2-2.9-4-4.8-7-4.8c-0.4,0-0.9,0-1.3,0.1c-0.7,0.1-1.3,0.2-1.9,0.2c-9.9,0-17.9-8-17.9-17.9v-8.5
	c0-5.9,4.8-10.8,10.8-10.8h4.2c4.2,0,7.6-3.4,7.6-7.6v-0.9c14.8-18.8,37.6-29.9,61.5-29.9h56.4c23.9,0,46.7,11.1,61.5,29.9v0.9
	c0,4.2,3.4,7.6,7.6,7.6h1.9c6.8,0,12.4,5.5,12.4,12.4V386.5z"/>
<path class="st0" d="M360,370.9c0,6.2-5.1,11.3-11.3,11.3c-6.2,0-11.3-5-11.3-11.3c0-6.2,5.1-11.3,11.3-11.3
	C355,359.7,360,364.7,360,370.9z"/>
<path class="st0" d="M433.1,370.9c0,6.2-5,11.3-11.3,11.3s-11.3-5-11.3-11.3c0-6.2,5-11.3,11.3-11.3S433.1,364.7,433.1,370.9z"/>
<path class="st0" d="M419.3,390.7h-68.1c-3.2,0-6.3,1.4-8.4,3.8c-2.1,2.4-3.2,5.6-2.8,8.8c2.5,23.1,22,40.6,45.3,40.6
	s42.8-17.4,45.3-40.6c0.4-3.2-0.7-6.4-2.8-8.8C425.6,392,422.5,390.7,419.3,390.7z M385.3,428.7c-14.1,0-26.1-9.6-29.5-22.8h58.9
	C411.4,419.1,399.4,428.7,385.3,428.7z"/>
<path class="st0" d="M232.4,352.3v-8.2c0-51.5-41.9-93.4-93.4-93.4H116c-51.5,0-93.4,41.9-93.4,93.4v7.8C9.9,353.6,0,364.5,0,377.7
	v8.5c0,17.7,14,32.2,31.5,33.1c15.4,32.7,48,53.6,84.5,53.6h22.9c36.5,0,69.1-20.9,84.5-53.6c17.1-1,30.8-15.3,30.8-32.7v-7.2
	C254.2,366,244.8,355,232.4,352.3z M239,386.5c0,9.7-7.9,17.6-17.6,17.6c-0.5,0-1.1,0-1.8-0.1c-3.4-0.5-6.8,1.4-8.1,4.7
	c-12,29.8-40.5,49-72.6,49H116c-32.1,0-60.6-19.3-72.6-49.1c-1.2-2.9-4-4.8-7-4.8c-0.4,0-0.9,0-1.3,0.1c-0.7,0.1-1.3,0.2-1.9,0.2
	c-9.9,0-17.9-8-17.9-17.9v-8.5c0-5.9,4.8-10.8,10.8-10.8h4.2c4.2,0,7.6-3.4,7.6-7.6v-0.9c14.8-18.8,37.6-29.9,61.5-29.9h56.4
	c5.2,0,10.3,0.5,15.3,1.5c4.1,0.8,8.1-1.9,8.9-6c0.8-4.1-1.9-8.1-6-8.9c-6-1.2-12.1-1.8-18.2-1.8H99.3c-22.6,0-44.3,8.3-61.1,22.8
	c4-39.5,37.4-70.4,77.9-70.4h22.9c40.5,0,73.9,30.9,77.9,70.3c-3.5-3-7.2-5.8-11.1-8.3c-3.5-2.2-8.2-1.2-10.5,2.3
	c-2.2,3.5-1.2,8.2,2.3,10.5c7.6,4.8,14.1,10.8,19.7,17.8v0.8c0,4.2,3.4,7.6,7.6,7.6h1.9c6.8,0,12.4,5.6,12.4,12.4V386.5z"/>
<path class="st0" d="M102.2,370.9c0,6.2-5.1,11.3-11.3,11.3c-6.2,0-11.3-5-11.3-11.3c0-6.2,5.1-11.3,11.3-11.3
	C97.2,359.7,102.2,364.7,102.2,370.9z"/>
<path class="st0" d="M175.3,370.9c0,6.2-5,11.3-11.3,11.3c-6.2,0-11.3-5-11.3-11.3c0-6.2,5.1-11.3,11.3-11.3
	C170.2,359.7,175.3,364.7,175.3,370.9z"/>
<path class="st0" d="M161.5,390.7H93.4c-3.2,0-6.3,1.4-8.4,3.8c-2.2,2.4-3.2,5.6-2.8,8.8c2.5,23.1,22,40.6,45.3,40.6
	c23.3,0,42.8-17.4,45.3-40.6c0.3-3.2-0.7-6.4-2.8-8.8C167.8,392,164.7,390.7,161.5,390.7z M127.5,428.7c-14.1,0-26.1-9.6-29.5-22.8
	h58.9C153.6,419.1,141.6,428.7,127.5,428.7z"/>
</svg>
