<?xml version="1.0" encoding="utf-8"?>
<!-- Generator: Adobe Illustrator 24.3.0, SVG Export Plug-In . SVG Version: 6.00 Build 0)  -->
<svg version="1.1" id="Layer_1" xmlns="http://www.w3.org/2000/svg" xmlns:xlink="http://www.w3.org/1999/xlink" x="0px" y="0px"
	 viewBox="0 0 512 512" style="enable-background:new 0 0 512 512;" xml:space="preserve">
<style type="text/css">
	.st0{fill:#878787;}
</style>
<g>
	<g>
		<path class="st0" d="M288,232c0-4.4-3.6-8-8-8h-48c-4.4,0-8,3.6-8,8s3.6,8,8,8h48C284.4,240,288,236.4,288,232z"/>
		<path class="st0" d="M412.9,328.1L304,297.9v-16.2c20.2-13.2,34.1-34,38.5-57.7h5.5c11,0,20-9,20-20v-40c0-11-9-20-20-20h-4
			c4.4,0,8-3.6,8-8v-24c0-4.4-3.6-8-8-8V36c0-15.5-12.5-28-28-28H196c-15.5,0-28,12.5-28,28v68c-4.4,0-8,3.6-8,8v24c0,4.4,3.6,8,8,8
			h-4c-11,0-20,9-20,20v40c0,11,9,20,20,20h5.5c4.4,23.7,18.3,44.6,38.5,57.7v16.2L99.2,328.1C78.4,334,64.1,352.9,64,374.4V496
			c0,4.4,3.6,8,8,8h368c4.4,0,8-3.6,8-8V374.4C447.9,352.9,433.6,334,412.9,328.1z M344,160h4c2.2,0,4,1.8,4,4v40c0,2.2-1.8,4-4,4
			h-4V160z M168,208h-4c-2.2,0-4-1.8-4-4v-40c0-2.2,1.8-4,4-4h4V208z M184,36c0-6.6,5.4-12,12-12h120c6.6,0,12,5.4,12,12v68H184V36z
			 M176,120h160v8H176V120z M184,208v-64h144v64c0,39.8-32.2,72-72,72S184,247.8,184,208z M288,290v14c0,11.8-4.8,16-32,16
			s-32-4.2-32-16v-14C244.6,298,267.4,298,288,290z M200,360v128h-56v-88c0-4.4-3.6-8-8-8s-8,3.6-8,8v88H80V374.4
			c0-14.4,9.6-27,23.4-30.8l105.8-29.4c2.2,8,7.3,13.9,15.2,17.4c2.5,1.1,5.2,2,7.9,2.5l-28.8,19.2C201.3,354.8,200,357.3,200,360
			L200,360z M432,488h-48v-88c0-4.4-3.6-8-8-8s-8,3.6-8,8v88H216V364.3l42.4-28.3c11.9-0.1,21.4-1,29.1-4.4
			c7.9-3.5,13-9.4,15.2-17.4l105.8,29.4c13.8,3.9,23.4,16.5,23.4,30.8V488z"/>
		<circle class="st0" cx="216" cy="176" r="8"/>
		<circle class="st0" cx="296" cy="176" r="8"/>
		<circle class="st0" cx="232" cy="408" r="8"/>
		<circle class="st0" cx="232" cy="376" r="8"/>
		<circle class="st0" cx="232" cy="440" r="8"/>
		<circle class="st0" cx="232" cy="472" r="8"/>
		<circle class="st0" cx="288" cy="408" r="8"/>
		<circle class="st0" cx="288" cy="376" r="8"/>
		<circle class="st0" cx="288" cy="440" r="8"/>
		<circle class="st0" cx="288" cy="472" r="8"/>
	</g>
</g>
</svg>
