<?xml version="1.0" encoding="utf-8"?>
<!-- Generator: Adobe Illustrator 24.3.0, SVG Export Plug-In . SVG Version: 6.00 Build 0)  -->
<svg version="1.1" id="Capa_1" xmlns="http://www.w3.org/2000/svg" xmlns:xlink="http://www.w3.org/1999/xlink" x="0px" y="0px"
	 viewBox="0 0 512 512" style="enable-background:new 0 0 512 512;" xml:space="preserve">
<style type="text/css">
	.st0{fill:#878787;}
</style>
<g>
	<g>
		<path class="st0" d="M472.6,39.4C443.2,10,401.8-3.7,355.9,0.9c-45.3,4.5-89.6,26.3-124.7,61.4c-3.1,3.1-6,6.2-8.9,9.5
			c-3.3-7.4-8-14.3-14.1-20.3c-26.8-26.8-70.5-26.8-97.4,0c-27,27-26.8,71,0.4,97.8c11.7,11.5,27.2,18.5,43.6,19.6
			c6.1,0.4,12.1,0,18-1.1c-4.7,22.5-5,44.7-1.2,65.2l-0.1,0c-0.2,20.6-4.6,77.8-22.4,95.6l-35.9,35.9c-1.6-0.4-3.2-0.7-4.9-0.7
			c-4.8,0-9.4,1.9-12.8,5.3l-55.9,55.9c-3,3-3,7.8,0,10.8s7.8,3,10.8,0l55.9-55.9c0.7-0.7,1.6-0.8,2-0.8s1.3,0.1,2,0.8l22,22
			c1.1,1.1,1.1,2.9,0,4l-90.2,90.2c-1.1,1.1-2.9,1.1-4,0l-22-22c-1.1-1.1-1.1-2.9,0-4l9.2-9.2c3-3,3-7.8,0-10.8s-7.8-3-10.8,0
			l-9.2,9.2c-7.1,7.1-7.1,18.5,0,25.6l22,22c3.5,3.5,8.2,5.3,12.8,5.3s9.3-1.8,12.8-5.3l90.2-90.2c4.8-4.8,6.3-11.6,4.6-17.7
			l35.9-35.9c17.7-17.7,75-22.1,95.6-22.4l0-0.1c5.2,1,10.4,1.7,15.8,2.1c4.5,0.4,8.9,0.5,13.4,0.5c26.3,0,53.3-6.2,79-18.3
			c4-1.8,5.6-6.6,3.6-10.5v0c-1.9-3.6-6.3-5.2-10-3.5c-27.8,13-57,18.7-84.8,16.4c-30.4-2.5-57-14.4-77-34.4
			c-31.8-31.8-42.6-80.6-29.3-131c6.7-3.3,12.9-7.7,18.3-13.1c16.2-16.2,22.6-38.5,19.3-59.5c4.5-5.6,9.4-11,14.5-16.1
			c32.6-32.6,73.6-52.8,115.4-57c41.2-4.1,78.3,8,104.4,34.1c54.3,54.3,44,152.9-22.8,219.8c-8.2,8.2-17,15.7-26.3,22.4
			c-3.3,2.4-4.1,7-1.9,10.4c2.4,3.6,7.3,4.5,10.9,2c9.9-7.1,19.4-15.2,28.2-23.9c35.1-35.1,56.9-79.4,61.4-124.7
			C515.7,110.2,502,68.8,472.6,39.4z M121.7,137.9c-8.8-8.8-13.9-19.9-15.2-31.4c11.8,1.4,22.7,6.7,31.3,15.3
			c8.6,8.6,13.9,19.5,15.3,31.4C141.2,151.7,130.3,146.4,121.7,137.9z M227.2,319.2c4.7,3.2,9.6,6.1,14.7,8.7
			c-1.8,0.2-3.6,0.5-5.4,0.7c-8.4,1.2-16,2.6-23,4.3L227.2,319.2z M208.4,303.6c2.1,2.1,4.4,4.2,6.6,6.2l-76.5,76.5l-12.8-12.8
			l76.5-76.5C204.2,299.3,206.2,301.5,208.4,303.6z M192.8,284.8l-13.7,13.7c1.7-7,3.1-14.6,4.3-23c0.3-1.9,0.5-3.7,0.7-5.5
			C186.7,275.1,189.6,280,192.8,284.8z M197.4,137.9c-8,8-18.1,13.1-29,14.9c-1.5-15.8-8.4-30.4-19.8-41.8
			c-11.4-11.4-26-18.3-41.8-19.8c1.8-10.6,6.7-20.8,14.9-29c8.2-8.2,18.4-13.1,29-14.9c1.5,15.8,8.4,30.4,19.8,41.8
			c11.4,11.4,26,18.3,41.8,19.8C210.6,119.5,205.6,129.7,197.4,137.9z M181.3,78.2c-8.6-8.6-13.9-19.5-15.3-31.3
			c11.5,1.4,22.6,6.5,31.4,15.2c8.8,8.8,13.9,19.9,15.2,31.4C200.8,92.1,189.9,86.8,181.3,78.2z"/>
	</g>
</g>
<g>
	<g>
		<path class="st0" d="M446.4,65.6c-21.4-21.4-52.2-31.3-86.8-27.8c-36.8,3.6-73,21.6-102.1,50.7c-29,29-47,65.3-50.7,102.1
			c-3.4,34.6,6.5,65.4,27.8,86.8c18.6,18.6,44.4,28.5,73.5,28.5c4.4,0,8.8-0.2,13.3-0.7c36.8-3.6,73-21.6,102.1-50.7
			c29-29,47-65.3,50.7-102.1C477.6,117.9,467.7,87,446.4,65.6z M440.7,82.1c6.9,8.4,12,18.3,15.1,29.2l-22.2-22.2L440.7,82.1z
			 M269,171.5l30.3-30.3l30.3,30.3l-30.3,30.3L269,171.5z M288.5,212.7L258.2,243l-30.3-30.3l30.3-30.3L288.5,212.7z M310.2,130.4
			l30.3-30.3l30.3,30.3l-30.3,30.3L310.2,130.4z M340.5,182.3l30.3,30.3L340.5,243l-30.3-30.3L340.5,182.3z M351.3,171.5l30.3-30.3
			l30.3,30.3l-30.3,30.3L351.3,171.5z M392.5,130.4l30.3-30.3l30.3,30.3l-30.3,30.3L392.5,130.4z M429.9,71.3l-7,7.1l-22.1-22.1
			C411.6,59.4,421.4,64.5,429.9,71.3z M381.6,58.9L412,89.2l-30.3,30.3l-30.3-30.3L381.6,58.9z M361.1,53c1.7-0.2,3.5-0.3,5.2-0.4
			l-25.8,25.8l-16.3-16.3C336.2,57.3,348.6,54.3,361.1,53z M309.4,68.9l20.3,20.3l-30.3,30.3L273.8,94
			C284.8,83.9,296.8,75.5,309.4,68.9z M263,104.8l25.5,25.5l-30.3,30.3l-20.3-20.3C244.4,127.8,252.9,115.8,263,104.8z M222,192.1
			c1.2-12.4,4.3-24.8,9.1-36.9l16.3,16.3l-25.8,25.8C221.7,195.5,221.8,193.8,222,192.1z M240.3,260.9c-6.9-8.4-12-18.3-15.1-29.2
			l22.2,22.2L240.3,260.9z M251.1,271.7l7.1-7.1l22.2,22.2C269.4,283.6,259.6,278.6,251.1,271.7z M299.3,284.1L269,253.8l30.3-30.3
			l30.3,30.3L299.3,284.1z M319.9,290c-1.7,0.2-3.5,0.3-5.2,0.4l25.8-25.8l16.3,16.3C344.8,285.7,332.4,288.8,319.9,290z
			 M371.6,274.1l-20.3-20.3l30.3-30.3l25.5,25.5C396.2,259.1,384.2,267.6,371.6,274.1z M418,238.2l-25.5-25.5l30.3-30.3l20.3,20.3
			C436.5,215.2,428.1,227.2,418,238.2z M459,150.9c-1.2,12.4-4.3,24.8-9.1,36.9l-16.3-16.3l25.8-25.8
			C459.3,147.5,459.1,149.2,459,150.9z"/>
	</g>
</g>
</svg>
