<?xml version="1.0" encoding="utf-8"?>
<!-- Generator: Adobe Illustrator 24.3.0, SVG Export Plug-In . SVG Version: 6.00 Build 0)  -->
<svg version="1.1" id="Layer_1" xmlns="http://www.w3.org/2000/svg" xmlns:xlink="http://www.w3.org/1999/xlink" x="0px" y="0px"
	 viewBox="0 0 512 512" style="enable-background:new 0 0 512 512;" xml:space="preserve">
<style type="text/css">
	.st0{fill:#878787;}
</style>
<path class="st0" d="M503.9,496h-65.2c30.6-28.9,21.2-78.8-16.2-95.4c-0.8-0.3,5.1,1.4-89.6-26.3c0-10.4,0.1-19.5,0.2-27.4h57.6
	c32.7,0,50.1-37.9,30.2-62.8l-15.2-19c-2.8-3.4-7.8-4-11.2-1.3c-3.4,2.8-4,7.8-1.3,11.2l15.2,19c11.7,14.6,1.5,36.8-17.7,36.8
	c-131.9,0-122.7,0.7-125.1-1.7c-2.4-2.5-1.7,2-1.7-77.5c12,6.2,16,32.5,16,45.8c0,4.4,3.6,8,8,8h70.5c6.7,0,10.4-7.7,6.3-12.9
	l-38.5-49c-2.7-3.5-7.8-4.1-11.2-1.4c-3.5,2.7-4.1,7.8-1.4,11.2l11.9,15.2c-1.8,6.9-3.3,13.4-4.5,20.9h-25.4
	c-2.1-27.2-12.7-56.7-39.6-55.2c-26.9-1.5-37.5,27.9-39.6,55.2h-25.4c-1.2-7.5-2.7-14-4.5-20.9l11.9-15.2c2.7-3.5,2.1-8.5-1.4-11.2
	c-3.5-2.7-8.5-2.1-11.2,1.4l-38.5,49c-4.1,5.2-0.4,12.9,6.3,12.9H224c4.4,0,8-3.6,8-8c0-13.4,4-39.7,16-45.8
	c0,79.4,0.7,75.1-1.7,77.5c-2.5,2.5,7.3,1.7-125.2,1.7c-19.1,0-29.4-22.2-17.7-36.8l64.9-81.1c16.3-11.7,35.5-17.8,55.6-17.8
	c65,0,88.8-4.1,119.4,17.4l9.1,11.4c2.8,3.5,7.8,4,11.2,1.3c3.5-2.8,4-7.8,1.3-11.2c-10.4-13.1-10.1-12.9-11.4-13.8
	c-17.7-12.7-38.7-20-60.4-20.9c6.6-7.2,8.4-13.1,15.1-28.3c7-16,10.9-33.5,10.9-51.6c0-18.7-9.7-36.8-27.6-48
	c0-16.5,1.8-28.8-10.4-41.1c-22.2-22.2-60.7-6.6-60.7,25.2v15.9c-16.6,10.5-27.6,27.9-27.6,48c0,17.7,3.7,35.1,10.9,51.6
	c7.2,16.4,8.8,21.4,15.1,28.3c-22.8,1-44,9-60.8,21.4c-1.3,1,2.9-4-67,83.4c-20.4,25.4-1.9,62.8,30.2,62.8h57.6
	c0.1,7.9,0.2,17,0.2,27.4c-94.8,27.7-88.8,25.9-89.6,26.3C52,417.2,42.7,467.2,73.3,496H8.1c-4.4,0-8,3.6-8,8c0,4.4,3.6,8,8,8h495.8
	c4.4,0,8-3.6,8-8C511.9,499.6,508.3,496,503.9,496z M338.2,284.7l3.8,4.9h-4.7C337.6,287.9,337.9,286.3,338.2,284.7z M173.8,284.7
	c0.3,1.6,0.6,3.2,0.9,4.9H170L173.8,284.7z M236.4,35.6c0-17.4,21.1-26.1,33.4-13.9c6.7,6.7,5.7,13.6,5.7,22.5
	c-12.7-3.8-26.4-3.8-39.2,0L236.4,35.6L236.4,35.6z M222.4,70c23.9-21.7,64.8-14.2,77.4,13.9c-21.7-4.5-35.4,4.4-46.8,11.7
	c-13.2,8.5-22.9,14.8-44.1,4.2C208.8,87.9,214,77.6,222.4,70L222.4,70z M210.4,117.8c21.4,7.7,34.6,1.9,51.3-8.8
	c11.8-7.6,22.1-14.2,41.5-7.7c-0.4,26.1-9.3,42.7-16.6,59.4c-10.8,24.6-50.2,24.6-61,0C218.1,144,213.1,134.3,210.4,117.8z
	 M191.7,471.9c-9.8,4.9-21.3,8.9-25.4,24h-12.7v-33.5L191.7,471.9z M183.7,495.8c2.8-4.2,3-3.5,34.5-19.3c0.2-0.1,0.6-0.3,0.8-0.5
	c15-10,17.1-12.5,24.8-12.5c7.9,0,15,5.1,17.5,12.6l0.9,2.6c1.3,4,5.5,6.2,9.5,5.2l86.6-21.6v33.5L183.7,495.8L183.7,495.8z
	 M71,453.7c0-16.6,9.7-31.5,24.6-38.3l92.7-27.1h86.9c4.4,0,8-3.6,8-8c0-4.4-3.6-8-8-8h-80c0-9.6-0.1-17.9-0.2-25.4h47.4
	c5.1,0,9.9-1.7,13.8-4.9c3.9,3.2,8.7,4.9,13.8,4.9h47.4c-0.2,11-0.3,22.4-0.3,33.4c0,1.6,0.5,3.1,1.4,4.4c2.3,3.4-3.6,0.9,98.2,30.6
	c26.6,12.2,33,47.3,12.2,68.1c-8,8-18.5,12.3-29.8,12.3h-24.6v-37.5l7.7-1.9c4.3-1.1,6.9-5.4,5.8-9.7c-1.1-4.3-5.4-6.9-9.7-5.8
	l-103.4,25.9c-9.5-19.4-33.7-24.6-50.6-13.3l-10.9,7.3l-79.3-19.8c-4.3-1.1-8.6,1.5-9.7,5.8c-1.1,4.3,1.5,8.6,5.8,9.7l7.7,1.9v37.5
	h-24.6C89.9,495.8,71,476.9,71,453.7L71,453.7z"/>
<path class="st0" d="M373.7,250.6c2.8,3.4,7.8,4,11.2,1.2c3.4-2.8,4-7.8,1.2-11.2l-1.3-1.6c-2.8-3.4-7.8-4-11.2-1.2
	c-3.4,2.8-4,7.8-1.2,11.2L373.7,250.6z"/>
</svg>
